<mxfile host="app.diagrams.net" modified="2023-03-10T11:35:53.427Z" agent="5.0 (Windows NT 10.0; Win64; x64) AppleWebKit/537.36 (KHTML, like Gecko) Chrome/110.0.0.0 Safari/537.36" etag="4jAeZrTuRIZJWoW9rr3J" version="21.0.6" type="github">
  <diagram id="C5RBs43oDa-KdzZeNtuy" name="Page-1">
    <mxGraphModel dx="2620" dy="2154" grid="1" gridSize="10" guides="1" tooltips="1" connect="1" arrows="1" fold="1" page="1" pageScale="1" pageWidth="827" pageHeight="1169" math="0" shadow="0">
      <root>
        <mxCell id="WIyWlLk6GJQsqaUBKTNV-0" />
        <mxCell id="WIyWlLk6GJQsqaUBKTNV-1" parent="WIyWlLk6GJQsqaUBKTNV-0" />
        <mxCell id="q1fwFzsRPC0Uu-eGo_Ai-0" value="MongoDB&lt;br&gt;collections" style="shape=cylinder3;whiteSpace=wrap;html=1;boundedLbl=1;backgroundOutline=1;size=15;" vertex="1" parent="WIyWlLk6GJQsqaUBKTNV-1">
          <mxGeometry x="500" y="-110" width="110" height="120" as="geometry" />
        </mxCell>
        <mxCell id="q1fwFzsRPC0Uu-eGo_Ai-2" value="Users" style="rounded=1;whiteSpace=wrap;html=1;" vertex="1" parent="WIyWlLk6GJQsqaUBKTNV-1">
          <mxGeometry x="-345" y="120" width="90" height="30" as="geometry" />
        </mxCell>
        <mxCell id="q1fwFzsRPC0Uu-eGo_Ai-5" value="User: {&lt;br&gt;id: number,&lt;br&gt;token: string,&lt;br&gt;role: string,&lt;br&gt;avatar: file.img,&lt;br&gt;online: boolean,&lt;br&gt;notifications: {&lt;br&gt;id: string },&lt;br&gt;другие данные в зависимости от способа авторизации/регистрации" style="whiteSpace=wrap;html=1;aspect=fixed;" vertex="1" parent="WIyWlLk6GJQsqaUBKTNV-1">
          <mxGeometry x="-380" y="160" width="160" height="160" as="geometry" />
        </mxCell>
        <mxCell id="q1fwFzsRPC0Uu-eGo_Ai-6" value="Request" style="rounded=1;whiteSpace=wrap;html=1;" vertex="1" parent="WIyWlLk6GJQsqaUBKTNV-1">
          <mxGeometry x="-26" y="120" width="90" height="30" as="geometry" />
        </mxCell>
        <mxCell id="q1fwFzsRPC0Uu-eGo_Ai-7" value="Reques: {&lt;br&gt;id: string,&lt;br&gt;ticketCreator: number(идентификатор пользователя который создал заявку),&lt;br&gt;type: number,&lt;br&gt;createdAt: string,&lt;br&gt;completedAt: string,&lt;br&gt;status: number(0 - создано, 1 - на рассмотрении, 2 - завершена),&lt;br&gt;body: string,&amp;nbsp;&lt;br&gt;media: files" style="whiteSpace=wrap;html=1;aspect=fixed;imageAspect=1;" vertex="1" parent="WIyWlLk6GJQsqaUBKTNV-1">
          <mxGeometry x="-109" y="160" width="256" height="256" as="geometry" />
        </mxCell>
        <mxCell id="q1fwFzsRPC0Uu-eGo_Ai-9" value="Chats" style="rounded=1;whiteSpace=wrap;html=1;" vertex="1" parent="WIyWlLk6GJQsqaUBKTNV-1">
          <mxGeometry x="550" y="120" width="90" height="30" as="geometry" />
        </mxCell>
        <mxCell id="q1fwFzsRPC0Uu-eGo_Ai-10" value="Chat: {&lt;br&gt;chatId : string,&lt;br&gt;participants: {&lt;br&gt;userId : number },&lt;br&gt;messages : {&lt;br&gt;id: string}" style="whiteSpace=wrap;html=1;aspect=fixed;" vertex="1" parent="WIyWlLk6GJQsqaUBKTNV-1">
          <mxGeometry x="530" y="160" width="130" height="130" as="geometry" />
        </mxCell>
        <mxCell id="q1fwFzsRPC0Uu-eGo_Ai-12" value="message: {&lt;br&gt;id: string,&lt;br&gt;sender: number(user id),&lt;br&gt;createdAt: string,&lt;br&gt;unRead: boolean,&lt;br&gt;&amp;nbsp;body: string,&lt;br&gt;photos: {&lt;br&gt;files. img}" style="shape=parallelogram;perimeter=parallelogramPerimeter;whiteSpace=wrap;html=1;fixedSize=1;" vertex="1" parent="WIyWlLk6GJQsqaUBKTNV-1">
          <mxGeometry x="502.5" y="300" width="185" height="130" as="geometry" />
        </mxCell>
        <mxCell id="q1fwFzsRPC0Uu-eGo_Ai-13" value="notifications" style="rounded=1;whiteSpace=wrap;html=1;" vertex="1" parent="WIyWlLk6GJQsqaUBKTNV-1">
          <mxGeometry x="790" y="120" width="100" height="30" as="geometry" />
        </mxCell>
        <mxCell id="q1fwFzsRPC0Uu-eGo_Ai-14" value="notification: {&lt;br&gt;id: string,&lt;br&gt;date: string,&lt;br&gt;unRead: boolean,&lt;br&gt;title: string,&lt;br&gt;body: string" style="whiteSpace=wrap;html=1;aspect=fixed;" vertex="1" parent="WIyWlLk6GJQsqaUBKTNV-1">
          <mxGeometry x="785" y="160" width="110" height="110" as="geometry" />
        </mxCell>
        <mxCell id="q1fwFzsRPC0Uu-eGo_Ai-15" value="reviews" style="rounded=1;whiteSpace=wrap;html=1;" vertex="1" parent="WIyWlLk6GJQsqaUBKTNV-1">
          <mxGeometry x="1020" y="120" width="90" height="30" as="geometry" />
        </mxCell>
        <mxCell id="q1fwFzsRPC0Uu-eGo_Ai-16" value="rewiew: {&lt;br&gt;id: string,&lt;br&gt;createdAt: string&lt;br&gt;fromUser: number ( user id ),&lt;br&gt;rating: number,&lt;br&gt;body: string" style="whiteSpace=wrap;html=1;aspect=fixed;" vertex="1" parent="WIyWlLk6GJQsqaUBKTNV-1">
          <mxGeometry x="983.75" y="157.5" width="162.5" height="162.5" as="geometry" />
        </mxCell>
        <mxCell id="q1fwFzsRPC0Uu-eGo_Ai-17" value="statistics" style="rounded=1;whiteSpace=wrap;html=1;" vertex="1" parent="WIyWlLk6GJQsqaUBKTNV-1">
          <mxGeometry x="1270" y="120" width="100" height="30" as="geometry" />
        </mxCell>
        <mxCell id="q1fwFzsRPC0Uu-eGo_Ai-18" value="сбор статистики по целевым показателям за каждый день, в последствии формировать периоды&lt;br&gt;&lt;br&gt;abonents: number,&amp;nbsp;&lt;br&gt;requests: number,&lt;br&gt;chats: number,&lt;br&gt;calls: number,&lt;br&gt;maxAktiveUsers: number" style="whiteSpace=wrap;html=1;aspect=fixed;" vertex="1" parent="WIyWlLk6GJQsqaUBKTNV-1">
          <mxGeometry x="1245" y="160" width="170" height="170" as="geometry" />
        </mxCell>
        <mxCell id="q1fwFzsRPC0Uu-eGo_Ai-19" value="calls" style="rounded=1;whiteSpace=wrap;html=1;" vertex="1" parent="WIyWlLk6GJQsqaUBKTNV-1">
          <mxGeometry x="268" y="120" width="146" height="30" as="geometry" />
        </mxCell>
        <mxCell id="q1fwFzsRPC0Uu-eGo_Ai-21" value="call : {&lt;br&gt;id: string,&lt;br&gt;createdAt: string,&lt;br&gt;caller: number ( user Id),&lt;br&gt;record: file" style="whiteSpace=wrap;html=1;aspect=fixed;" vertex="1" parent="WIyWlLk6GJQsqaUBKTNV-1">
          <mxGeometry x="271" y="170" width="140" height="140" as="geometry" />
        </mxCell>
      </root>
    </mxGraphModel>
  </diagram>
</mxfile>
